<?xml version="1.0" encoding="utf-8"?>
<!-- Generator: Adobe Illustrator 16.2.1, SVG Export Plug-In . SVG Version: 6.00 Build 0)  -->
<!DOCTYPE svg PUBLIC "-//W3C//DTD SVG 1.1//EN" "http://www.w3.org/Graphics/SVG/1.1/DTD/svg11.dtd">
<svg version="1.1" id="Layer_1" xmlns="http://www.w3.org/2000/svg" xmlns:xlink="http://www.w3.org/1999/xlink" x="0px" y="0px"
	 width="600px" height="200px" viewBox="0 0 600 200" enable-background="new 0 0 600 200" xml:space="preserve">
<g>
	<polygon fill="#3A6B8C" points="129.923,72.091 122.854,28.882 100.574,56.58 88.652,67.792 104.989,83.829 125.805,99.097 
		123.812,101.893 109.622,93.954 85.354,70.565 72.256,86.882 53.133,76.595 47.543,88.49 26.359,117.426 22.271,114.781 
		43.204,85.999 50.495,72.865 31.063,63.816 7.333,47.222 9.589,77.56 17.402,122.957 57.764,124.823 103.661,115.417 
		128.112,112.221 132.948,104.828 	"/>
	<polygon fill="#3A6B8C" points="54.056,68.083 70.788,79.487 80.787,67.272 97.267,51.757 122.153,22.821 69.683,29.572 
		33.716,35.12 6.471,41.179 33.273,58.751 	"/>
</g>
<g>
	<polygon fill="#A31304" points="158.143,145.186 162.864,117.604 143.646,129.701 134.101,133.992 140.632,147.079 
		150.027,160.639 148.244,161.913 141.324,154.161 131.525,134.977 120.218,142.107 110.812,131.909 104.952,137.932 
		86.128,151.004 84.213,148.555 102.853,135.523 109.989,129.105 100.139,119.594 91.328,121.802 84.299,123.426 79.57,152.479 
		103.57,162.014 133.252,165.885 148.688,169.045 153.151,165.589 	"/>
	<polygon fill="#A31304" points="113.134,126.963 120.874,137.336 129.455,132.034 142.644,126.096 163.706,113.797 
		135.373,108.116 130.671,115.218 115.447,116.924 107.747,117.611 104.075,118.552 	"/>
</g>
<path fill="#4B7945" d="M202.993,28.927L173,34.267l-30.076,6.259l-11.084,1.759l5.324,28.734l5.486,25.356l20.207-4.607
	l31.317-5.488l19.072-4.242l-4.1-17.716L202.993,28.927z M184.344,74.994l0.299,1.722l-10.582,1.636l-22.616,4.14l-0.321-1.88
	l-0.459-1.92l8.95-1.97l0.124-0.021l14.281-2.158l10.106-1.394L184.344,74.994z M149.288,72.247l-0.003-1.462l11.635-2.362
	l11.401-2.005l5.398-1.161l4.646-0.859l0.407,3.124l-5.672,1.291l-16.194,2.771l-11.027,2.271L149.288,72.247z M180.994,57.647
	l0.387,1.759l-11.226,2.171l-12.153,1.857l-9.896,1.764l-0.891-3.285l23.188-4.26l10.436-1.716L180.994,57.647z M200.173,44.229
	l-9.442,1.479l-1.324-4.495l-0.611-5.415l4.335-0.543l5.43-1.117l1.294,5.059L200.173,44.229z"/>
<g>
	<path d="M239.39,104.682c0-1.486-0.793-2.18-2.18-2.18h-3.963V91.801h11.592c4.459,0,6.639,2.082,6.639,5.648v1.486
		c0,1.089-0.099,2.179-0.099,2.179h0.198c2.378-4.955,8.422-10.502,16.349-10.502c7.629,0,12.583,3.566,14.763,10.404h0.198
		c2.675-5.45,9.215-10.404,17.24-10.404c10.501,0,16.547,5.946,16.547,19.221v19.718c0,1.387,0.791,2.18,2.18,2.18h3.863v10.602
		h-11.89c-4.757,0-6.737-1.98-6.737-6.736v-23.383c0-5.748-1.091-10.105-6.936-10.105c-6.241,0-10.701,5.25-12.088,11.593
		c-0.595,1.979-0.793,4.062-0.793,6.438v22.193H271.69v-30.119c0-5.451-0.792-10.105-6.836-10.105
		c-6.341,0-10.602,5.25-12.188,11.689c-0.495,1.982-0.792,4.062-0.792,6.342v22.193H239.39V104.682z"/>
	<path d="M357.878,110.627h1.585v-0.396c0-7.231-2.873-9.907-9.314-9.907c-2.276,0-6.735,0.594-6.735,3.368v2.675h-11.69v-5.349
		c0-9.414,13.276-10.405,18.527-10.405c16.842,0,21.797,8.818,21.797,20.114v18.825c0,1.388,0.793,2.179,2.18,2.179h3.965v10.603
		h-11.295c-4.658,0-6.441-2.576-6.441-5.548c0-1.287,0.1-2.18,0.1-2.18h-0.197c0,0-3.864,8.916-15.258,8.916
		c-9.018,0-17.24-5.646-17.24-15.754C327.855,111.914,349.654,110.627,357.878,110.627z M348.168,133.712
		c6.736,0,11.492-7.133,11.492-13.274v-1.188h-2.18c-6.539,0-16.942,0.892-16.942,7.926
		C340.538,130.542,343.016,133.712,348.168,133.712z"/>
	<path d="M388.686,104.682c0-1.486-0.793-2.18-2.181-2.18h-3.963V91.801h11.987c4.658,0,6.64,2.082,6.64,6.737v31.013
		c0,1.387,0.793,2.18,2.18,2.18h3.966v10.602h-11.991c-4.654,0-6.638-1.98-6.638-6.736V104.682z M389.279,71.985h10.898v11.593
		h-10.898V71.985z"/>
	<path d="M417.612,84.866c0-1.487-0.793-2.18-2.18-2.18h-3.963V71.985h11.988c4.657,0,6.737,2.081,6.737,6.738v50.829
		c0,1.388,0.793,2.179,2.179,2.179h3.865v10.603h-11.89c-4.755,0-6.736-1.979-6.736-6.735L417.612,84.866L417.612,84.866z"/>
	<path d="M447.135,100.521c0-1.389-0.793-2.182-2.182-2.182h-4.16v-5.846h6.837c4.261,0,5.944,1.784,5.944,5.251
		c0,1.983-0.099,3.37-0.099,3.37h0.196c0,0,3.963-9.809,17.143-9.809c13.375,0,21.697,10.7,21.697,26.157
		c0,15.755-9.413,26.059-22.293,26.059c-12.188,0-16.349-9.412-16.349-9.412h-0.198c0,0,0.198,1.785,0.198,4.358v23.681h-6.736
		L447.135,100.521L447.135,100.521z M469.525,137.576c8.817,0,16.053-7.432,16.053-20.113c0-12.186-6.442-20.013-15.755-20.013
		c-8.323,0-16.15,5.944-16.15,20.112C453.673,127.57,459.123,137.576,469.525,137.576z"/>
	<path d="M505.78,100.521c0-1.389-0.792-2.182-2.181-2.182h-4.161v-5.846h7.035c4.262,0,6.043,1.784,6.043,6.044v35.769
		c0,1.485,0.794,2.18,2.182,2.18h4.161v5.846h-7.036c-4.258,0-6.043-1.784-6.043-6.043V100.521L505.78,100.521z M505.582,72.678
		h6.539V81.2h-6.539V72.678L505.582,72.678z"/>
	<path d="M530.053,80.705c0-1.387-0.792-2.18-2.18-2.18h-4.161v-5.847h7.033c4.261,0,6.045,1.785,6.045,6.045v55.583
		c0,1.485,0.791,2.18,2.18,2.18h4.16v5.846h-7.033c-4.261,0-6.044-1.784-6.044-6.043V80.705L530.053,80.705z"/>
	<path d="M574.338,91.306c13.772,0,20.906,10.602,20.906,22.987c0,1.188-0.199,3.369-0.199,3.369h-38.244
		c0.197,12.582,9.017,19.814,19.319,19.814c9.118,0,14.962-6.144,14.962-6.144l3.27,5.054c0,0-7.231,7.135-18.525,7.135
		c-14.766,0-26.061-10.701-26.061-26.06C549.766,101.115,560.962,91.306,574.338,91.306z M588.307,112.311
		c-0.395-10.305-6.735-15.356-14.066-15.356c-8.225,0-15.456,5.351-17.144,15.356H588.307z"/>
</g>
</svg>
